<svg xmlns="http://www.w3.org/2000/svg" style="display: none;">
  <symbol id="at" viewBox="0 -960 960 960">
    <path d="M480-80q-83 0-156-31.5T197-197q-54-54-85.5-127T80-480q0-83 31.5-156T197-763q54-54 127-85.5T480-880q83 0 156 31.5T763-763q54 54 85.5 127T880-480v58q0 59-40.5 100.5T740-280q-35 0-66-15t-52-43q-29 29-65.5 43.5T480-280q-83 0-141.5-58.5T280-480q0-83 58.5-141.5T480-680q83 0 141.5 58.5T680-480v58q0 26 17 44t43 18q26 0 43-18t17-44v-58q0-134-93-227t-227-93q-134 0-227 93t-93 227q0 134 93 227t227 93h200v80H480Zm85-315q35-35 35-85t-35-85q-35-35-85-35t-85 35q-35 35-35 85t35 85q35 35 85 35t85-35Z" />
  </symbol>
  <symbol id="comment" viewBox="0 -960 960 960">
    <path d="M440-400h80v-120h120v-80H520v-120h-80v120H320v80h120v120ZM80-80v-720q0-33 23.5-56.5T160-880h640q33 0 56.5 23.5T880-800v480q0 33-23.5 56.5T800-240H240L80-80Zm126-240h594v-480H160v525l46-45Zm-46 0v-480 480Z" />
  </symbol>
  <symbol id="dots" viewBox="0 -960 960 960">
    <path d="M240-400q-33 0-56.5-23.5T160-480q0-33 23.5-56.5T240-560q33 0 56.5 23.5T320-480q0 33-23.5 56.5T240-400Zm240 0q-33 0-56.5-23.5T400-480q0-33 23.5-56.5T480-560q33 0 56.5 23.5T560-480q0 33-23.5 56.5T480-400Zm240 0q-33 0-56.5-23.5T640-480q0-33 23.5-56.5T720-560q33 0 56.5 23.5T800-480q0 33-23.5 56.5T720-400Z" />
  </symbol>
  <symbol id="edit" viewBox="0 -960 960 960">
    <path d="M216-216h51l375-375-51-51-375 375v51Zm-72 72v-153l498-498q11-11 23.84-16 12.83-5 27-5 14.16 0 27.16 5t24 16l51 51q11 11 16 24t5 26.54q0 14.45-5.02 27.54T795-642L297-144H144Zm600-549-51-51 51 51Zm-127.95 76.95L591-642l51 51-25.95-25.05Z" />
  </symbol>
  <symbol id="heart" viewBox="0 -960 960 960">
    <path d="m480-120-58-52q-101-91-167-157T150-447.5Q111-500 95.5-544T80-634q0-94 63-157t157-63q52 0 99 22t81 62q34-40 81-62t99-22q94 0 157 63t63 157q0 46-15.5 90T810-447.5Q771-395 705-329T538-172l-58 52Zm0-108q96-86 158-147.5t98-107q36-45.5 50-81t14-70.5q0-60-40-100t-100-40q-47 0-87 26.5T518-680h-76q-15-41-55-67.5T300-774q-60 0-100 40t-40 100q0 35 14 70.5t50 81q36 45.5 98 107T480-228Zm0-273Z" />
  </symbol>
  <symbol id="list" viewBox="0 -960 960 960">
    <path d="M288-600v-72h528v72H288Zm0 156v-72h528v72H288Zm0 156v-72h528v72H288ZM180-600q-14 0-25-11t-11-25.5q0-14.5 11-25t25.5-10.5q14.5 0 25 10.35T216-636q0 14-10.35 25T180-600Zm0 156q-14 0-25-11t-11-25.5q0-14.5 11-25t25.5-10.5q14.5 0 25 10.35T216-480q0 14-10.35 25T180-444Zm0 156q-14 0-25-11t-11-25.5q0-14.5 11-25t25.5-10.5q14.5 0 25 10.35T216-324q0 14-10.35 25T180-288Z" />
  </symbol>
  <symbol id="location" viewBox="0 -960 960 960">
    <path d="M536.5-503.5Q560-527 560-560t-23.5-56.5Q513-640 480-640t-56.5 23.5Q400-593 400-560t23.5 56.5Q447-480 480-480t56.5-23.5ZM480-186q122-112 181-203.5T720-552q0-109-69.5-178.5T480-800q-101 0-170.5 69.5T240-552q0 71 59 162.5T480-186Zm0 106Q319-217 239.5-334.5T160-552q0-150 96.5-239T480-880q127 0 223.5 89T800-552q0 100-79.5 217.5T480-80Zm0-480Z" />
  </symbol>
  <symbol id="search" viewBox="0 -960 960 960">
    <path d="M784-120 532-372q-30 24-69 38t-83 14q-109 0-184.5-75.5T120-580q0-109 75.5-184.5T380-840q109 0 184.5 75.5T640-580q0 44-14 83t-38 69l252 252-56 56ZM380-400q75 0 127.5-52.5T560-580q0-75-52.5-127.5T380-760q-75 0-127.5 52.5T200-580q0 75 52.5 127.5T380-400Z" />
  </symbol>
  <symbol id="share" viewBox="0 -960 960 960">
    <path d="M280-80 120-240l160-160 56 58-62 62h406v-160h80v240H274l62 62-56 58Zm-80-440v-240h486l-62-62 56-58 160 160-160 160-56-58 62-62H280v160h-80Z" />
  </symbol>
  <symbol id="trash" viewBox="0 -960 960 960">
    <path d="m400-325 80-80 80 80 51-51-80-80 80-80-51-51-80 80-80-80-51 51 80 80-80 80 51 51Zm-88 181q-29.7 0-50.85-21.15Q240-186.3 240-216v-480h-48v-72h192v-48h192v48h192v72h-48v479.57Q720-186 698.85-165T648-144H312Zm336-552H312v480h336v-480Zm-336 0v480-480Z" />
  </symbol>
</svg>