<svg xmlns="http://www.w3.org/2000/svg" style="display: none;">
  <symbol id="at" viewBox="0 -960 960 960">
    <path d="M480-80q-83 0-156-31.5T197-197q-54-54-85.5-127T80-480q0-83 31.5-156T197-763q54-54 127-85.5T480-880q83 0 156 31.5T763-763q54 54 85.5 127T880-480v58q0 59-40.5 100.5T740-280q-35 0-66-15t-52-43q-29 29-65.5 43.5T480-280q-83 0-141.5-58.5T280-480q0-83 58.5-141.5T480-680q83 0 141.5 58.5T680-480v58q0 26 17 44t43 18q26 0 43-18t17-44v-58q0-134-93-227t-227-93q-134 0-227 93t-93 227q0 134 93 227t227 93h200v80H480Zm85-315q35-35 35-85t-35-85q-35-35-85-35t-85 35q-35 35-35 85t35 85q35 35 85 35t85-35Z" />
  </symbol>
  <symbol id="bell" viewBox="0 -960 960 960">
    <path d="M160-200v-80h80v-280q0-83 50-147.5T420-792v-28q0-25 17.5-42.5T480-880q25 0 42.5 17.5T540-820v28q80 20 130 84.5T720-560v280h80v80H160Zm320-300Zm0 420q-33 0-56.5-23.5T400-160h160q0 33-23.5 56.5T480-80ZM320-280h320v-280q0-66-47-113t-113-47q-66 0-113 47t-47 113v280Z" />
  </symbol>
  <symbol id="block" viewBox="0 -960 960 960">
    <path d="M324-111.5Q251-143 197-197t-85.5-127Q80-397 80-480t31.5-156Q143-709 197-763t127-85.5Q397-880 480-880t156 31.5Q709-817 763-763t85.5 127Q880-563 880-480t-31.5 156Q817-251 763-197t-127 85.5Q563-80 480-80t-156-31.5ZM480-160q54 0 104-17.5t92-50.5L228-676q-33 42-50.5 92T160-480q0 134 93 227t227 93Zm252-124q33-42 50.5-92T800-480q0-134-93-227t-227-93q-54 0-104 17.5T284-732l448 448ZM480-480Z" />
  </symbol>
  <symbol id="circle" viewBox="0 -960 960 960">
    <path d="M480-80q-83 0-156-31.5T197-197q-54-54-85.5-127T80-480q0-83 31.5-156T197-763q54-54 127-85.5T480-880q83 0 156 31.5T763-763q54 54 85.5 127T880-480q0 83-31.5 156T763-197q-54 54-127 85.5T480-80Zm0-80q134 0 227-93t93-227q0-134-93-227t-227-93q-134 0-227 93t-93 227q0 134 93 227t227 93Zm0-320Z" />
  </symbol>
  <symbol id="checked-circle" viewBox="0 -960 960 960">
    <path d="m424-296 282-282-56-56-226 226-114-114-56 56 170 170Zm56 216q-83 0-156-31.5T197-197q-54-54-85.5-127T80-480q0-83 31.5-156T197-763q54-54 127-85.5T480-880q83 0 156 31.5T763-763q54 54 85.5 127T880-480q0 83-31.5 156T763-197q-54 54-127 85.5T480-80Zm0-80q134 0 227-93t93-227q0-134-93-227t-227-93q-134 0-227 93t-93 227q0 134 93 227t227 93Zm0-320Z" />
  </symbol>
  <symbol id="comment" viewBox="0 -960 960 960">
    <path d="M440-400h80v-120h120v-80H520v-120h-80v120H320v80h120v120ZM80-80v-720q0-33 23.5-56.5T160-880h640q33 0 56.5 23.5T880-800v480q0 33-23.5 56.5T800-240H240L80-80Zm126-240h594v-480H160v525l46-45Zm-46 0v-480 480Z" />
  </symbol>
  <symbol id="date" viewBox="0 -960 960 960">
    <path d="M200-80q-33 0-56.5-23.5T120-160v-560q0-33 23.5-56.5T200-800h40v-80h80v80h320v-80h80v80h40q33 0 56.5 23.5T840-720v560q0 33-23.5 56.5T760-80H200Zm0-80h560v-400H200v400Zm0-480h560v-80H200v80Zm0 0v-80 80Zm280 240q-17 0-28.5-11.5T440-440q0-17 11.5-28.5T480-480q17 0 28.5 11.5T520-440q0 17-11.5 28.5T480-400Zm-188.5-11.5Q280-423 280-440t11.5-28.5Q303-480 320-480t28.5 11.5Q360-457 360-440t-11.5 28.5Q337-400 320-400t-28.5-11.5ZM640-400q-17 0-28.5-11.5T600-440q0-17 11.5-28.5T640-480q17 0 28.5 11.5T680-440q0 17-11.5 28.5T640-400ZM480-240q-17 0-28.5-11.5T440-280q0-17 11.5-28.5T480-320q17 0 28.5 11.5T520-280q0 17-11.5 28.5T480-240Zm-188.5-11.5Q280-263 280-280t11.5-28.5Q303-320 320-320t28.5 11.5Q360-297 360-280t-11.5 28.5Q337-240 320-240t-28.5-11.5ZM640-240q-17 0-28.5-11.5T600-280q0-17 11.5-28.5T640-320q17 0 28.5 11.5T680-280q0 17-11.5 28.5T640-240Z" />
  </symbol>
  <symbol id="dots" viewBox="0 -960 960 960">
    <path d="M240-400q-33 0-56.5-23.5T160-480q0-33 23.5-56.5T240-560q33 0 56.5 23.5T320-480q0 33-23.5 56.5T240-400Zm240 0q-33 0-56.5-23.5T400-480q0-33 23.5-56.5T480-560q33 0 56.5 23.5T560-480q0 33-23.5 56.5T480-400Zm240 0q-33 0-56.5-23.5T640-480q0-33 23.5-56.5T720-560q33 0 56.5 23.5T800-480q0 33-23.5 56.5T720-400Z" />
  </symbol>
  <symbol id="edit" viewBox="0 -960 960 960">
    <path d="M216-216h51l375-375-51-51-375 375v51Zm-72 72v-153l498-498q11-11 23.84-16 12.83-5 27-5 14.16 0 27.16 5t24 16l51 51q11 11 16 24t5 26.54q0 14.45-5.02 27.54T795-642L297-144H144Zm600-549-51-51 51 51Zm-127.95 76.95L591-642l51 51-25.95-25.05Z" />
  </symbol>
  <symbol id="emoji" viewBox="0 -960 960 960">
    <path d="M620-520q25 0 42.5-17.5T680-580q0-25-17.5-42.5T620-640q-25 0-42.5 17.5T560-580q0 25 17.5 42.5T620-520Zm-280 0q25 0 42.5-17.5T400-580q0-25-17.5-42.5T340-640q-25 0-42.5 17.5T280-580q0 25 17.5 42.5T340-520Zm263.5 221.5Q659-337 684-400h-66q-22 37-58.5 58.5T480-320q-43 0-79.5-21.5T342-400h-66q25 63 80.5 101.5T480-260q68 0 123.5-38.5ZM324-111.5Q251-143 197-197t-85.5-127Q80-397 80-480t31.5-156Q143-709 197-763t127-85.5Q397-880 480-880t156 31.5Q709-817 763-763t85.5 127Q880-563 880-480t-31.5 156Q817-251 763-197t-127 85.5Q563-80 480-80t-156-31.5ZM480-480Zm227 227q93-93 93-227t-93-227q-93-93-227-93t-227 93q-93 93-93 227t93 227q93 93 227 93t227-93Z" />
  </symbol>
  <symbol id="email" viewBox="0 -960 960 960">
    <path d="M160-160q-33 0-56.5-23.5T80-240v-480q0-33 23.5-56.5T160-800h640q33 0 56.5 23.5T880-720v480q0 33-23.5 56.5T800-160H160Zm320-280L160-640v400h640v-400L480-440Zm0-80 320-200H160l320 200ZM160-640v-80 480-400Z" />
  </symbol>
  <symbol id="heart" viewBox="0 -960 960 960">
    <path d="m480-120-58-52q-101-91-167-157T150-447.5Q111-500 95.5-544T80-634q0-94 63-157t157-63q52 0 99 22t81 62q34-40 81-62t99-22q94 0 157 63t63 157q0 46-15.5 90T810-447.5Q771-395 705-329T538-172l-58 52Zm0-108q96-86 158-147.5t98-107q36-45.5 50-81t14-70.5q0-60-40-100t-100-40q-47 0-87 26.5T518-680h-76q-15-41-55-67.5T300-774q-60 0-100 40t-40 100q0 35 14 70.5t50 81q36 45.5 98 107T480-228Zm0-273Z" />
  </symbol>
  <symbol id="info" viewBox="0 -960 960 960">
    <path d="M440-280h80v-240h-80v240Zm68.5-331.5Q520-623 520-640t-11.5-28.5Q497-680 480-680t-28.5 11.5Q440-657 440-640t11.5 28.5Q463-600 480-600t28.5-11.5ZM480-80q-83 0-156-31.5T197-197q-54-54-85.5-127T80-480q0-83 31.5-156T197-763q54-54 127-85.5T480-880q83 0 156 31.5T763-763q54 54 85.5 127T880-480q0 83-31.5 156T763-197q-54 54-127 85.5T480-80Zm0-80q134 0 227-93t93-227q0-134-93-227t-227-93q-134 0-227 93t-93 227q0 134 93 227t227 93Zm0-320Z" />
  </symbol>
  <symbol id="link-url" viewBox="0 -960 960 960">
    <path d="M318-120q-82 0-140-58t-58-140q0-40 15-76t43-64l134-133 56 56-134 134q-17 17-25.5 38.5T200-318q0 49 34.5 83.5T318-200q23 0 45-8.5t39-25.5l133-134 57 57-134 133q-28 28-64 43t-76 15Zm79-220-57-57 223-223 57 57-223 223Zm251-28-56-57 134-133q17-17 25-38t8-44q0-50-34-85t-84-35q-23 0-44.5 8.5T558-726L425-592l-57-56 134-134q28-28 64-43t76-15q82 0 139.5 58T839-641q0 39-14.5 75T782-502L648-368Z" />
  </symbol>
  <symbol id="list" viewBox="0 -960 960 960">
    <path d="M288-600v-72h528v72H288Zm0 156v-72h528v72H288Zm0 156v-72h528v72H288ZM180-600q-14 0-25-11t-11-25.5q0-14.5 11-25t25.5-10.5q14.5 0 25 10.35T216-636q0 14-10.35 25T180-600Zm0 156q-14 0-25-11t-11-25.5q0-14.5 11-25t25.5-10.5q14.5 0 25 10.35T216-480q0 14-10.35 25T180-444Zm0 156q-14 0-25-11t-11-25.5q0-14.5 11-25t25.5-10.5q14.5 0 25 10.35T216-324q0 14-10.35 25T180-288Z" />
  </symbol>
  <symbol id="location" viewBox="0 -960 960 960">
    <path d="M536.5-503.5Q560-527 560-560t-23.5-56.5Q513-640 480-640t-56.5 23.5Q400-593 400-560t23.5 56.5Q447-480 480-480t56.5-23.5ZM480-186q122-112 181-203.5T720-552q0-109-69.5-178.5T480-800q-101 0-170.5 69.5T240-552q0 71 59 162.5T480-186Zm0 106Q319-217 239.5-334.5T160-552q0-150 96.5-239T480-880q127 0 223.5 89T800-552q0 100-79.5 217.5T480-80Zm0-480Z" />
  </symbol>
  <symbol id="microphone" viewBox="0 -960 960 960">
    <path d="M395-435q-35-35-35-85v-240q0-50 35-85t85-35q50 0 85 35t35 85v240q0 50-35 85t-85 35q-50 0-85-35Zm85-205Zm-40 520v-123q-104-14-172-93t-68-184h80q0 83 58.5 141.5T480-320q83 0 141.5-58.5T680-520h80q0 105-68 184t-172 93v123h-80Zm68.5-371.5Q520-503 520-520v-240q0-17-11.5-28.5T480-800q-17 0-28.5 11.5T440-760v240q0 17 11.5 28.5T480-480q17 0 28.5-11.5Z" />
  </symbol>
  <symbol id="messages" viewBox="0 -960 960 960">
    <path d="M880-80 720-240H320q-33 0-56.5-23.5T240-320v-40h440q33 0 56.5-23.5T760-440v-280h40q33 0 56.5 23.5T880-640v560ZM160-473l47-47h393v-280H160v327ZM80-280v-520q0-33 23.5-56.5T160-880h440q33 0 56.5 23.5T680-800v280q0 33-23.5 56.5T600-440H240L80-280Zm80-240v-280 280Z" />
  </symbol>
  <symbol id="photo" viewBox="0 -960 960 960">
    <path d="M200-120q-33 0-56.5-23.5T120-200v-560q0-33 23.5-56.5T200-840h560q33 0 56.5 23.5T840-760v560q0 33-23.5 56.5T760-120H200Zm0-80h560v-560H200v560Zm40-80h480L570-480 450-320l-90-120-120 160Zm-40 80v-560 560Z" />
  </symbol>
  <symbol id="public" viewBox="0 -960 960 960">
    <path d="M325-111.5q-73-31.5-127.5-86t-86-127.5Q80-398 80-480.5t31.5-155q31.5-72.5 86-127t127.5-86Q398-880 480.5-880t155 31.5q72.5 31.5 127 86t86 127Q880-563 880-480.5T848.5-325q-31.5 73-86 127.5t-127 86Q563-80 480.5-80T325-111.5ZM480-162q26-36 45-75t31-83H404q12 44 31 83t45 75Zm-104-16q-18-33-31.5-68.5T322-320H204q29 50 72.5 87t99.5 55Zm208 0q56-18 99.5-55t72.5-87H638q-9 38-22.5 73.5T584-178ZM170-400h136q-3-20-4.5-39.5T300-480q0-21 1.5-40.5T306-560H170q-5 20-7.5 39.5T160-480q0 21 2.5 40.5T170-400Zm216 0h188q3-20 4.5-39.5T580-480q0-21-1.5-40.5T574-560H386q-3 20-4.5 39.5T380-480q0 21 1.5 40.5T386-400Zm268 0h136q5-20 7.5-39.5T800-480q0-21-2.5-40.5T790-560H654q3 20 4.5 39.5T660-480q0 21-1.5 40.5T654-400Zm-16-240h118q-29-50-72.5-87T584-782q18 33 31.5 68.5T638-640Zm-234 0h152q-12-44-31-83t-45-75q-26 36-45 75t-31 83Zm-200 0h118q9-38 22.5-73.5T376-782q-56 18-99.5 55T204-640Z" />
  </symbol>
  <symbol id="followers" viewBox="0 -960 960 960">
    <path d="M96-192v-92q0-25.78 12.5-47.39T143-366q54-32 114.5-49T384-432q66 0 126.5 17T625-366q22 13 34.5 34.61T672-284v92H96Zm648 0v-92q0-42-19.5-78T672-421q39 8 75.5 21.5T817-366q22 13 34.5 34.67Q864-309.65 864-284v92H744ZM282-522q-42-42-42-102t42-102q42-42 102-42t102 42q42 42 42 102t-42 102q-42 42-102 42t-102-42Zm396 0q-42 42-102 42-8 0-15-.5t-15-2.5q25-29 39.5-64.5T600-624q0-41-14.5-76.5T546-765q8-2 15-2.5t15-.5q60 0 102 42t42 102q0 60-42 102ZM168-264h432v-20q0-6.47-3.03-11.76-3.02-5.3-7.97-8.24-47-27-99-41.5T384-360q-54 0-106 14t-99 42q-4.95 2.83-7.98 7.91-3.02 5.09-3.02 12V-264Zm267-309.21q21-21.21 21-51T434.79-675q-21.21-21-51-21T333-674.79q-21 21.21-21 51T333.21-573q21.21 21 51 21T435-573.21ZM384-264Zm0-360Z" />
  </symbol>
  <symbol id="lock" viewBox="0 -960 960 960">
    <path d="M263.72-96Q234-96 213-117.15T192-168v-384q0-29.7 21.15-50.85Q234.3-624 264-624h24v-96q0-79.68 56.23-135.84 56.22-56.16 136-56.16Q560-912 616-855.84q56 56.16 56 135.84v96h24q29.7 0 50.85 21.15Q768-581.7 768-552v384q0 29.7-21.16 50.85Q725.68-96 695.96-96H263.72Zm.28-72h432v-384H264v384Zm267-141.21q21-21.21 21-51T530.79-411q-21.21-21-51-21T429-410.79q-21 21.21-21 51T429.21-309q21.21 21 51 21T531-309.21ZM360-624h240v-96q0-50-35-85t-85-35q-50 0-85 35t-35 85v96Zm-96 456v-384 384Z" />
  </symbol>
  <symbol id="search" viewBox="0 -960 960 960">
    <path d="M784-120 532-372q-30 24-69 38t-83 14q-109 0-184.5-75.5T120-580q0-109 75.5-184.5T380-840q109 0 184.5 75.5T640-580q0 44-14 83t-38 69l252 252-56 56ZM380-400q75 0 127.5-52.5T560-580q0-75-52.5-127.5T380-760q-75 0-127.5 52.5T200-580q0 75 52.5 127.5T380-400Z" />
  </symbol>
  <symbol id="send" viewBox="0 -960 960 960">
    <path d="M120-160v-640l760 320-760 320Zm80-120 474-200-474-200v140l240 60-240 60v140Zm0 0v-400 400Z" />
  </symbol>
  <symbol id="share" viewBox="0 -960 960 960">
    <path d="M280-80 120-240l160-160 56 58-62 62h406v-160h80v240H274l62 62-56 58Zm-80-440v-240h486l-62-62 56-58 160 160-160 160-56-58 62-62H280v160h-80Z" />
  </symbol>
  <symbol id="explore" viewBox="0 -960 960 960">
    <path d="m300-300 280-80 80-280-280 80-80 280Zm180-120q-25 0-42.5-17.5T420-480q0-25 17.5-42.5T480-540q25 0 42.5 17.5T540-480q0 25-17.5 42.5T480-420Zm0 340q-83 0-156-31.5T197-197q-54-54-85.5-127T80-480q0-83 31.5-156T197-763q54-54 127-85.5T480-880q83 0 156 31.5T763-763q54 54 85.5 127T880-480q0 83-31.5 156T763-197q-54 54-127 85.5T480-80Zm0-80q133 0 226.5-93.5T800-480q0-133-93.5-226.5T480-800q-133 0-226.5 93.5T160-480q0 133 93.5 226.5T480-160Zm0-320Z" />
  </symbol>
  <symbol id="trash" viewBox="0 -960 960 960">
    <path d="m400-325 80-80 80 80 51-51-80-80 80-80-51-51-80 80-80-80-51 51 80 80-80 80 51 51Zm-88 181q-29.7 0-50.85-21.15Q240-186.3 240-216v-480h-48v-72h192v-48h192v48h192v72h-48v479.57Q720-186 698.85-165T648-144H312Zm336-552H312v480h336v-480Zm-336 0v480-480Z" />
  </symbol>
  <symbol id="dashboard" viewBox="0 -960 960 960">
    <path d="M520-600v-240h320v240H520ZM120-440v-400h320v400H120Zm400 320v-400h320v400H520Zm-400 0v-240h320v240H120Zm80-400h160v-240H200v240Zm400 320h160v-240H600v240Zm0-480h160v-80H600v80ZM200-200h160v-80H200v80Zm160-320Zm240-160Zm0 240ZM360-280Z" />
  </symbol>
  <symbol id="create" viewBox="0 -960 960 960">
    <path d="M160-120q-33 0-56.5-23.5T80-200v-560q0-33 23.5-56.5T160-840h640q33 0 56.5 23.5T880-760v560q0 33-23.5 56.5T800-120H160Zm0-80h640v-560H160v560Zm80-80h480v-80H240v80Zm0-160h160v-240H240v240Zm240 0h240v-80H480v80Zm0-160h240v-80H480v80ZM160-200v-560 560Z" />
  </symbol>
  <symbol id="connections" viewBox="0 -960 960 960">
    <path d="M0-240v-63q0-43 44-70t116-27q13 0 25 .5t23 2.5q-14 21-21 44t-7 48v65H0Zm240 0v-65q0-32 17.5-58.5T307-410q32-20 76.5-30t96.5-10q53 0 97.5 10t76.5 30q32 20 49 46.5t17 58.5v65H240Zm540 0v-65q0-26-6.5-49T754-397q11-2 22.5-2.5t23.5-.5q72 0 116 26.5t44 70.5v63H780Zm-455-80h311q-10-20-55.5-35T480-370q-55 0-100.5 15T325-320ZM160-440q-33 0-56.5-23.5T80-520q0-34 23.5-57t56.5-23q34 0 57 23t23 57q0 33-23 56.5T160-440Zm640 0q-33 0-56.5-23.5T720-520q0-34 23.5-57t56.5-23q34 0 57 23t23 57q0 33-23 56.5T800-440Zm-320-40q-50 0-85-35t-35-85q0-51 35-85.5t85-34.5q51 0 85.5 34.5T600-600q0 50-34.5 85T480-480Zm0-80q17 0 28.5-11.5T520-600q0-17-11.5-28.5T480-640q-17 0-28.5 11.5T440-600q0 17 11.5 28.5T480-560Zm1 240Zm-1-280Z" />
  </symbol>
  <symbol id="profile" viewBox="0 -960 960 960">
    <path d="M234-276q51-39 114-61.5T480-360q69 0 132 22.5T726-276q35-41 54.5-93T800-480q0-133-93.5-226.5T480-800q-133 0-226.5 93.5T160-480q0 59 19.5 111t54.5 93Zm146.5-204.5Q340-521 340-580t40.5-99.5Q421-720 480-720t99.5 40.5Q620-639 620-580t-40.5 99.5Q539-440 480-440t-99.5-40.5ZM480-80q-83 0-156-31.5T197-197q-54-54-85.5-127T80-480q0-83 31.5-156T197-763q54-54 127-85.5T480-880q83 0 156 31.5T763-763q54 54 85.5 127T880-480q0 83-31.5 156T763-197q-54 54-127 85.5T480-80Zm100-95.5q47-15.5 86-44.5-39-29-86-44.5T480-280q-53 0-100 15.5T294-220q39 29 86 44.5T480-160q53 0 100-15.5ZM523-537q17-17 17-43t-17-43q-17-17-43-17t-43 17q-17 17-17 43t17 43q17 17 43 17t43-17Zm-43-43Zm0 360Z" />
  </symbol>
  <symbol id="settings" viewBox="0 -960 960 960">
    <path d="m370-80-16-128q-13-5-24.5-12T307-235l-119 50L78-375l103-78q-1-7-1-13.5v-27q0-6.5 1-13.5L78-585l110-190 119 50q11-8 23-15t24-12l16-128h220l16 128q13 5 24.5 12t22.5 15l119-50 110 190-103 78q1 7 1 13.5v27q0 6.5-2 13.5l103 78-110 190-118-50q-11 8-23 15t-24 12L590-80H370Zm70-80h79l14-106q31-8 57.5-23.5T639-327l99 41 39-68-86-65q5-14 7-29.5t2-31.5q0-16-2-31.5t-7-29.5l86-65-39-68-99 42q-22-23-48.5-38.5T533-694l-13-106h-79l-14 106q-31 8-57.5 23.5T321-633l-99-41-39 68 86 64q-5 15-7 30t-2 32q0 16 2 31t7 30l-86 65 39 68 99-42q22 23 48.5 38.5T427-266l13 106Zm42-180q58 0 99-41t41-99q0-58-41-99t-99-41q-59 0-99.5 41T342-480q0 58 40.5 99t99.5 41Zm-2-140Z" />
  </symbol>
  <symbol id="more" viewBox="0 -960 960 960">
    <path d="M240-400q-33 0-56.5-23.5T160-480q0-33 23.5-56.5T240-560q33 0 56.5 23.5T320-480q0 33-23.5 56.5T240-400Zm240 0q-33 0-56.5-23.5T400-480q0-33 23.5-56.5T480-560q33 0 56.5 23.5T560-480q0 33-23.5 56.5T480-400Zm240 0q-33 0-56.5-23.5T640-480q0-33 23.5-56.5T720-560q33 0 56.5 23.5T800-480q0 33-23.5 56.5T720-400Z" />
  </symbol>
  <symbol id="logout" viewBox="0 -960 960 960">
    <path d="M200-120q-33 0-56.5-23.5T120-200v-160h80v160h560v-560H200v160h-80v-160q0-33 23.5-56.5T200-840h560q33 0 56.5 23.5T840-760v560q0 33-23.5 56.5T760-120H200Zm220-160-56-58 102-102H120v-80h346L364-622l56-58 200 200-200 200Z" />
  </symbol>
  <symbol id="visibility" viewBox="0 -960 960 960">
    <path d="M607.5-372.5Q660-425 660-500t-52.5-127.5Q555-680 480-680t-127.5 52.5Q300-575 300-500t52.5 127.5Q405-320 480-320t127.5-52.5Zm-204-51Q372-455 372-500t31.5-76.5Q435-608 480-608t76.5 31.5Q588-545 588-500t-31.5 76.5Q525-392 480-392t-76.5-31.5ZM214-281.5Q94-363 40-500q54-137 174-218.5T480-800q146 0 266 81.5T920-500q-54 137-174 218.5T480-200q-146 0-266-81.5ZM480-500Zm207.5 160.5Q782-399 832-500q-50-101-144.5-160.5T480-720q-113 0-207.5 59.5T128-500q50 101 144.5 160.5T480-280q113 0 207.5-59.5Z"/>   
  </symbol>
  <symbol id="visibilityoff" viewBox="0 -960 960 960">
    <path d="m644-428-58-58q9-47-27-88t-93-32l-58-58q17-8 34.5-12t37.5-4q75 0 127.5 52.5T660-500q0 20-4 37.5T644-428Zm128 126-58-56q38-29 67.5-63.5T832-500q-50-101-143.5-160.5T480-720q-29 0-57 4t-55 12l-62-62q41-17 84-25.5t90-8.5q151 0 269 83.5T920-500q-23 59-60.5 109.5T772-302Zm20 246L624-222q-35 11-70.5 16.5T480-200q-151 0-269-83.5T40-500q21-53 53-98.5t73-81.5L56-792l56-56 736 736-56 56ZM222-624q-29 26-53 57t-41 67q50 101 143.5 160.5T480-280q20 0 39-2.5t39-5.5l-36-38q-11 3-21 4.5t-21 1.5q-75 0-127.5-52.5T300-500q0-11 1.5-21t4.5-21l-84-82Zm319 93Zm-151 75Z"/>
  </symbol>
  <symbol id="menu" viewBox="0 -960 960 960">
    <path d="M120-240v-80h720v80H120Zm0-200v-80h720v80H120Zm0-200v-80h720v80H120Z"/>
  </symbol>
  <symbol id="close" viewBox="0 -960 960 960">
    <path d="m256-200-56-56 224-224-224-224 56-56 224 224 224-224 56 56-224 224 224 224-56 56-224-224-224 224Z"/>
  </symbol>
  <symbol id="checked" viewBox="0 -960 960 960">
     <path d="M268-240 42-466l57-56 170 170 56 56-57 56Zm226 0L268-466l56-57 170 170 368-368 56 57-424 424Zm0-226-57-56 198-198 57 56-198 198Z"/>    
  </symbol>
  <symbol id="check" viewBox="0 -960 960 960">
     <path d="M382-240 154-468l57-57 171 171 367-367 57 57-424 424Z"/>    
  </symbol>
</svg>